# xmcd
#
# Track frame offsets: 
#        150
#        8080
#        29912
#        54040
#        77081
#        106660
#        128596
#        149788
#        176066
#        193030
#        210522
#        230424
#        251124
#        277094
#        305899
#        321227
#
# Disc length: 4550 seconds
#
# Revision: 0
# Processed by: cddbd v1.5.2PL0 Copyright (c) Steve Scherf et al.
# Submitted via: ExactAudioCopyFreeDBPlugin 1.0
#
DISCID=ea11c410
DTITLE=Doctor L - We Got Lost
DYEAR=2012
DGENRE=Blues
TTITLE0=It is So Hard
TTITLE1=Mind Kind
TTITLE2=You Better Fly
TTITLE3=No More Prison
TTITLE4=Burn Baby Burn
TTITLE5=The Passage Way
TTITLE6=Never Play Me
TTITLE7=Naligiyo
TTITLE8=Nature
TTITLE9=Come Over
TTITLE10=Plastic Jesus
TTITLE11=Go and Tell the Mountains
TTITLE12=Old Woman
TTITLE13=Energy
TTITLE14=Riders in da Storm
TTITLE15=We Got Lost
EXTD=
EXTT0=
EXTT1=
EXTT2=
EXTT3=
EXTT4=
EXTT5=
EXTT6=
EXTT7=
EXTT8=
EXTT9=
EXTT10=
EXTT11=
EXTT12=
EXTT13=
EXTT14=
EXTT15=
PLAYORDER=
